{
	"asset":{
		"version":"2.0",
		"generator":"Houdini GLTF 2.0 Exporter"
	},
	"animations":[
		{
			"channels":[
				{
					"target":{
						"node":0,
						"path":"weights"
					},
					"sampler":0
				}
			],
			"samplers":[
				{
					"input":29,
					"interpolation":"LINEAR",
					"output":28
				}
			]
		}
	],
	"accessors":[
		{
			"bufferView":0,
			"componentType":5123,
			"count":1056,
			"type":"SCALAR",
			"min":[0
			],
			"max":[224
			]
		},
		{
			"bufferView":1,
			"componentType":5126,
			"count":225,
			"type":"VEC3",
			"min":[-0.477710545,-0.0383447222,0.0637506545
			],
			"max":[-0.347431719,0.0919349268,0.0961251035
			]
		},
		{
			"bufferView":2,
			"componentType":5126,
			"count":225,
			"type":"VEC3",
			"min":[0.126758531,0.0908116028,0.33129847
			],
			"max":[1,1,1
			]
		},
		{
			"bufferView":3,
			"componentType":5126,
			"count":225,
			"type":"SCALAR",
			"min":[1
			],
			"max":[1
			]
		},
		{
			"bufferView":4,
			"componentType":5126,
			"count":225,
			"type":"VEC3",
			"min":[-0.00432637334,-0.00462348573,-0.000887200236
			],
			"max":[0.0021276474,0.00528884679,0.000218182802
			]
		},
		{
			"bufferView":5,
			"componentType":5126,
			"count":225,
			"type":"VEC3",
			"min":[0,0,0
			],
			"max":[0,0,0
			]
		},
		{
			"bufferView":6,
			"componentType":5126,
			"count":225,
			"type":"SCALAR",
			"min":[0
			],
			"max":[0
			]
		},
		{
			"bufferView":7,
			"componentType":5126,
			"count":225,
			"type":"VEC3",
			"min":[-0.0175471008,-0.0187347848,-0.0055327788
			],
			"max":[0.00862950087,0.0214680247,0.000675968826
			]
		},
		{
			"bufferView":8,
			"componentType":5126,
			"count":225,
			"type":"VEC3",
			"min":[0,0,0
			],
			"max":[0,0,0
			]
		},
		{
			"bufferView":9,
			"componentType":5126,
			"count":225,
			"type":"SCALAR",
			"min":[0
			],
			"max":[0
			]
		},
		{
			"bufferView":10,
			"componentType":5126,
			"count":225,
			"type":"VEC3",
			"min":[-0.0256589055,-0.0272153784,-0.0104862005
			],
			"max":[0.01265046,0.0313712992,0.00093999505
			]
		},
		{
			"bufferView":11,
			"componentType":5126,
			"count":225,
			"type":"VEC3",
			"min":[0,0,0
			],
			"max":[0,0,0
			]
		},
		{
			"bufferView":12,
			"componentType":5126,
			"count":225,
			"type":"SCALAR",
			"min":[0
			],
			"max":[0
			]
		},
		{
			"bufferView":13,
			"componentType":5126,
			"count":225,
			"type":"VEC3",
			"min":[-0.0276356339,-0.0175197404,-0.0108727068
			],
			"max":[0.0157438815,0.0320596062,0.00275176018
			]
		},
		{
			"bufferView":14,
			"componentType":5126,
			"count":225,
			"type":"VEC3",
			"min":[0,0,0
			],
			"max":[0,0,0
			]
		},
		{
			"bufferView":15,
			"componentType":5126,
			"count":225,
			"type":"SCALAR",
			"min":[0
			],
			"max":[0
			]
		},
		{
			"bufferView":16,
			"componentType":5126,
			"count":225,
			"type":"VEC3",
			"min":[-0.0280176401,-0.00179230794,-0.00865829736
			],
			"max":[0.0210367739,0.0294637419,0.00608420372
			]
		},
		{
			"bufferView":17,
			"componentType":5126,
			"count":225,
			"type":"VEC3",
			"min":[0,0,0
			],
			"max":[0,0,0
			]
		},
		{
			"bufferView":18,
			"componentType":5126,
			"count":225,
			"type":"SCALAR",
			"min":[0
			],
			"max":[0
			]
		},
		{
			"bufferView":19,
			"componentType":5126,
			"count":225,
			"type":"VEC3",
			"min":[-0.0282022357,-0.00377828628,-0.00818964839
			],
			"max":[0.0237770677,0.040980272,0.00643601269
			]
		},
		{
			"bufferView":20,
			"componentType":5126,
			"count":225,
			"type":"VEC3",
			"min":[0,0,0
			],
			"max":[0,0,0
			]
		},
		{
			"bufferView":21,
			"componentType":5126,
			"count":225,
			"type":"SCALAR",
			"min":[0
			],
			"max":[0
			]
		},
		{
			"bufferView":22,
			"componentType":5126,
			"count":225,
			"type":"VEC3",
			"min":[-0.0282237828,-0.00401007012,-0.00813988596
			],
			"max":[0.0240970254,0.0423124954,0.0063784942
			]
		},
		{
			"bufferView":23,
			"componentType":5126,
			"count":225,
			"type":"VEC3",
			"min":[0,0,0
			],
			"max":[0,0,0
			]
		},
		{
			"bufferView":24,
			"componentType":5126,
			"count":225,
			"type":"SCALAR",
			"min":[0
			],
			"max":[0
			]
		},
		{
			"bufferView":25,
			"componentType":5126,
			"count":225,
			"type":"VEC3",
			"min":[-0.0282237828,-0.00401007012,-0.00812514126
			],
			"max":[0.0240970254,0.042292662,0.00642117858
			]
		},
		{
			"bufferView":26,
			"componentType":5126,
			"count":225,
			"type":"VEC3",
			"min":[0,0,0
			],
			"max":[0,0,0
			]
		},
		{
			"bufferView":27,
			"componentType":5126,
			"count":225,
			"type":"SCALAR",
			"min":[0
			],
			"max":[0
			]
		},
		{
			"componentType":5126,
			"count":72,
			"type":"SCALAR",
			"sparse":{
				"count":8,
				"values":{
					"bufferView":29
				},
				"indices":{
					"bufferView":28,
					"componentType":5125
				}
			},
			"min":[0
			],
			"max":[1
			]
		},
		{
			"bufferView":30,
			"componentType":5126,
			"count":9,
			"type":"SCALAR",
			"min":[0
			],
			"max":[0.333333343
			]
		}
	],
	"buffers":[
		{
			"uri":"chigyo_eye_data.bin",
			"byteLength":58912
		}
	],
	"bufferViews":[
		{
			"buffer":0,
			"byteLength":2112,
			"target":34963
		},
		{
			"buffer":0,
			"byteOffset":2112,
			"byteLength":2700,
			"target":34962
		},
		{
			"buffer":0,
			"byteOffset":4812,
			"byteLength":2700,
			"target":34962
		},
		{
			"buffer":0,
			"byteOffset":7512,
			"byteLength":900,
			"target":34962
		},
		{
			"buffer":0,
			"byteOffset":8412,
			"byteLength":2700,
			"target":34962
		},
		{
			"buffer":0,
			"byteOffset":11112,
			"byteLength":2700,
			"target":34962
		},
		{
			"buffer":0,
			"byteOffset":13812,
			"byteLength":900,
			"target":34962
		},
		{
			"buffer":0,
			"byteOffset":14712,
			"byteLength":2700,
			"target":34962
		},
		{
			"buffer":0,
			"byteOffset":17412,
			"byteLength":2700,
			"target":34962
		},
		{
			"buffer":0,
			"byteOffset":20112,
			"byteLength":900,
			"target":34962
		},
		{
			"buffer":0,
			"byteOffset":21012,
			"byteLength":2700,
			"target":34962
		},
		{
			"buffer":0,
			"byteOffset":23712,
			"byteLength":2700,
			"target":34962
		},
		{
			"buffer":0,
			"byteOffset":26412,
			"byteLength":900,
			"target":34962
		},
		{
			"buffer":0,
			"byteOffset":27312,
			"byteLength":2700,
			"target":34962
		},
		{
			"buffer":0,
			"byteOffset":30012,
			"byteLength":2700,
			"target":34962
		},
		{
			"buffer":0,
			"byteOffset":32712,
			"byteLength":900,
			"target":34962
		},
		{
			"buffer":0,
			"byteOffset":33612,
			"byteLength":2700,
			"target":34962
		},
		{
			"buffer":0,
			"byteOffset":36312,
			"byteLength":2700,
			"target":34962
		},
		{
			"buffer":0,
			"byteOffset":39012,
			"byteLength":900,
			"target":34962
		},
		{
			"buffer":0,
			"byteOffset":39912,
			"byteLength":2700,
			"target":34962
		},
		{
			"buffer":0,
			"byteOffset":42612,
			"byteLength":2700,
			"target":34962
		},
		{
			"buffer":0,
			"byteOffset":45312,
			"byteLength":900,
			"target":34962
		},
		{
			"buffer":0,
			"byteOffset":46212,
			"byteLength":2700,
			"target":34962
		},
		{
			"buffer":0,
			"byteOffset":48912,
			"byteLength":2700,
			"target":34962
		},
		{
			"buffer":0,
			"byteOffset":51612,
			"byteLength":900,
			"target":34962
		},
		{
			"buffer":0,
			"byteOffset":52512,
			"byteLength":2700,
			"target":34962
		},
		{
			"buffer":0,
			"byteOffset":55212,
			"byteLength":2700,
			"target":34962
		},
		{
			"buffer":0,
			"byteOffset":57912,
			"byteLength":900,
			"target":34962
		},
		{
			"buffer":0,
			"byteOffset":58812,
			"byteLength":32
		},
		{
			"buffer":0,
			"byteOffset":58844,
			"byteLength":32
		},
		{
			"buffer":0,
			"byteOffset":58876,
			"byteLength":36
		}
	],
	"nodes":[
		{
			"mesh":0
		}
	],
	"meshes":[
		{
			"primitives":[
				{
					"attributes":{
						"COLOR_0":2,
						"POSITION":1,
						"_Alpha":3
					},
					"indices":0,
					"targets":[
						{
							"COLOR_0":5,
							"POSITION":4,
							"_Alpha":6
						},
						{
							"COLOR_0":8,
							"POSITION":7,
							"_Alpha":9
						},
						{
							"COLOR_0":11,
							"POSITION":10,
							"_Alpha":12
						},
						{
							"COLOR_0":14,
							"POSITION":13,
							"_Alpha":15
						},
						{
							"COLOR_0":17,
							"POSITION":16,
							"_Alpha":18
						},
						{
							"COLOR_0":20,
							"POSITION":19,
							"_Alpha":21
						},
						{
							"COLOR_0":23,
							"POSITION":22,
							"_Alpha":24
						},
						{
							"COLOR_0":26,
							"POSITION":25,
							"_Alpha":27
						}
					]
				}
			],
			"extras":{
				"targetNames":["","","","","","","",""
				]
			}
		}
	],
	"scenes":[
		{
			"nodes":[0
			]
		}
	],
	"scene":0
}
