{
	"asset":{
		"version":"2.0",
		"generator":"Houdini GLTF 2.0 Exporter"
	},
	"animations":[
		{
			"channels":[
				{
					"target":{
						"node":0,
						"path":"weights"
					},
					"sampler":0
				}
			],
			"samplers":[
				{
					"input":29,
					"interpolation":"LINEAR",
					"output":28
				}
			]
		}
	],
	"accessors":[
		{
			"bufferView":0,
			"componentType":5125,
			"count":51894,
			"type":"SCALAR",
			"min":[0
			],
			"max":[8419
			]
		},
		{
			"bufferView":1,
			"componentType":5126,
			"count":8420,
			"type":"VEC3",
			"min":[-0.531059504,-0.180962041,-0.0861196294
			],
			"max":[0.472617805,0.120866165,0.0851286426
			]
		},
		{
			"bufferView":2,
			"componentType":5126,
			"count":8420,
			"type":"VEC3",
			"min":[0.434710979,0.459652454,0.494597554
			],
			"max":[0.99427557,1.00015843,0.990360081
			]
		},
		{
			"bufferView":3,
			"componentType":5126,
			"count":8420,
			"type":"SCALAR",
			"min":[0.999999821
			],
			"max":[1.00000024
			]
		},
		{
			"bufferView":4,
			"componentType":5126,
			"count":8420,
			"type":"VEC3",
			"min":[-0.0308009386,-0.0314674005,-0.0410913639
			],
			"max":[0.0178863928,0.0164365508,0.0708428025
			]
		},
		{
			"bufferView":5,
			"componentType":5126,
			"count":8420,
			"type":"VEC3",
			"min":[-0.0497131944,-0.0278477073,-0.0339007974
			],
			"max":[0.0523343086,0.0169220567,0.0339007974
			]
		},
		{
			"bufferView":6,
			"componentType":5126,
			"count":8420,
			"type":"SCALAR",
			"min":[-1.78813934e-07
			],
			"max":[1.1920929e-07
			]
		},
		{
			"bufferView":7,
			"componentType":5126,
			"count":8420,
			"type":"VEC3",
			"min":[-0.0308465362,-0.0406160727,-0.0648906901
			],
			"max":[0.034714818,0.0259562768,0.0855520442
			]
		},
		{
			"bufferView":8,
			"componentType":5126,
			"count":8420,
			"type":"VEC3",
			"min":[-0.0497131944,-0.0278477073,-0.0294668674
			],
			"max":[0.0523343086,0.0169220567,0.0339007974
			]
		},
		{
			"bufferView":9,
			"componentType":5126,
			"count":8420,
			"type":"SCALAR",
			"min":[-1.78813934e-07
			],
			"max":[1.1920929e-07
			]
		},
		{
			"bufferView":10,
			"componentType":5126,
			"count":8420,
			"type":"VEC3",
			"min":[-0.0291654766,-0.0482680909,-0.0674635693
			],
			"max":[0.0373920798,0.0269854255,0.112535715
			]
		},
		{
			"bufferView":11,
			"componentType":5126,
			"count":8420,
			"type":"VEC3",
			"min":[-0.0497131944,-0.0256866217,-0.0265616179
			],
			"max":[0.0523343086,0.0203897357,0.0339007974
			]
		},
		{
			"bufferView":12,
			"componentType":5126,
			"count":8420,
			"type":"SCALAR",
			"min":[-1.78813934e-07
			],
			"max":[1.1920929e-07
			]
		},
		{
			"bufferView":13,
			"componentType":5126,
			"count":8420,
			"type":"VEC3",
			"min":[-0.0291768014,-0.0530161187,-0.112553656
			],
			"max":[0.0214951336,0.0450214744,0.120040484
			]
		},
		{
			"bufferView":14,
			"componentType":5126,
			"count":8420,
			"type":"VEC3",
			"min":[-0.0497131944,-0.0256866217,-0.0339007974
			],
			"max":[0.0523343086,0.0275072455,0.0339007974
			]
		},
		{
			"bufferView":15,
			"componentType":5126,
			"count":8420,
			"type":"SCALAR",
			"min":[-1.78813934e-07
			],
			"max":[1.1920929e-07
			]
		},
		{
			"bufferView":16,
			"componentType":5126,
			"count":8420,
			"type":"VEC3",
			"min":[-0.0308009684,-0.0495951958,-0.153707713
			],
			"max":[0.0272563398,0.0614830852,0.119331323
			]
		},
		{
			"bufferView":17,
			"componentType":5126,
			"count":8420,
			"type":"VEC3",
			"min":[-0.0418204069,-0.0256866217,-0.0314318538
			],
			"max":[0.0423588753,0.0275072455,0.0325552225
			]
		},
		{
			"bufferView":18,
			"componentType":5126,
			"count":8420,
			"type":"SCALAR",
			"min":[-1.78813934e-07
			],
			"max":[1.1920929e-07
			]
		},
		{
			"bufferView":19,
			"componentType":5126,
			"count":8420,
			"type":"VEC3",
			"min":[-0.0308465362,-0.0365336761,-0.138022333
			],
			"max":[0.0347148776,0.0552089475,0.0913128257
			]
		},
		{
			"bufferView":20,
			"componentType":5126,
			"count":8420,
			"type":"VEC3",
			"min":[-0.0418204069,-0.0256866217,-0.0314318538
			],
			"max":[0.0423588753,0.0275072455,0.0325552225
			]
		},
		{
			"bufferView":21,
			"componentType":5126,
			"count":8420,
			"type":"SCALAR",
			"min":[-1.78813934e-07
			],
			"max":[1.1920929e-07
			]
		},
		{
			"bufferView":22,
			"componentType":5126,
			"count":8420,
			"type":"VEC3",
			"min":[-0.0291655064,-0.0190543942,-0.0654084682
			],
			"max":[0.0373920798,0.026163388,0.04763598
			]
		},
		{
			"bufferView":23,
			"componentType":5126,
			"count":8420,
			"type":"VEC3",
			"min":[-0.0418204069,-0.0256866217,-0.0314318538
			],
			"max":[0.0423588753,0.0275072455,0.0325552225
			]
		},
		{
			"bufferView":24,
			"componentType":5126,
			"count":8420,
			"type":"SCALAR",
			"min":[-1.1920929e-07
			],
			"max":[1.1920929e-07
			]
		},
		{
			"bufferView":25,
			"componentType":5126,
			"count":8420,
			"type":"VEC3",
			"min":[-8.94069672e-08,-2.98023224e-08,-4.09781933e-08
			],
			"max":[5.96046448e-08,2.23517418e-08,1.49011612e-08
			]
		},
		{
			"bufferView":26,
			"componentType":5126,
			"count":8420,
			"type":"VEC3",
			"min":[0,0,0
			],
			"max":[0,0,0
			]
		},
		{
			"bufferView":27,
			"componentType":5126,
			"count":8420,
			"type":"SCALAR",
			"min":[0
			],
			"max":[0
			]
		},
		{
			"componentType":5126,
			"count":72,
			"type":"SCALAR",
			"sparse":{
				"count":8,
				"values":{
					"bufferView":29
				},
				"indices":{
					"bufferView":28,
					"componentType":5125
				}
			},
			"min":[0
			],
			"max":[1
			]
		},
		{
			"bufferView":30,
			"componentType":5126,
			"count":9,
			"type":"SCALAR",
			"min":[0
			],
			"max":[0.333333343
			]
		}
	],
	"buffers":[
		{
			"uri":"chigyo_body_data.bin",
			"byteLength":2329516
		}
	],
	"bufferViews":[
		{
			"buffer":0,
			"byteLength":207576,
			"target":34963
		},
		{
			"buffer":0,
			"byteOffset":207576,
			"byteLength":101040,
			"target":34962
		},
		{
			"buffer":0,
			"byteOffset":308616,
			"byteLength":101040,
			"target":34962
		},
		{
			"buffer":0,
			"byteOffset":409656,
			"byteLength":33680,
			"target":34962
		},
		{
			"buffer":0,
			"byteOffset":443336,
			"byteLength":101040,
			"target":34962
		},
		{
			"buffer":0,
			"byteOffset":544376,
			"byteLength":101040,
			"target":34962
		},
		{
			"buffer":0,
			"byteOffset":645416,
			"byteLength":33680,
			"target":34962
		},
		{
			"buffer":0,
			"byteOffset":679096,
			"byteLength":101040,
			"target":34962
		},
		{
			"buffer":0,
			"byteOffset":780136,
			"byteLength":101040,
			"target":34962
		},
		{
			"buffer":0,
			"byteOffset":881176,
			"byteLength":33680,
			"target":34962
		},
		{
			"buffer":0,
			"byteOffset":914856,
			"byteLength":101040,
			"target":34962
		},
		{
			"buffer":0,
			"byteOffset":1015896,
			"byteLength":101040,
			"target":34962
		},
		{
			"buffer":0,
			"byteOffset":1116936,
			"byteLength":33680,
			"target":34962
		},
		{
			"buffer":0,
			"byteOffset":1150616,
			"byteLength":101040,
			"target":34962
		},
		{
			"buffer":0,
			"byteOffset":1251656,
			"byteLength":101040,
			"target":34962
		},
		{
			"buffer":0,
			"byteOffset":1352696,
			"byteLength":33680,
			"target":34962
		},
		{
			"buffer":0,
			"byteOffset":1386376,
			"byteLength":101040,
			"target":34962
		},
		{
			"buffer":0,
			"byteOffset":1487416,
			"byteLength":101040,
			"target":34962
		},
		{
			"buffer":0,
			"byteOffset":1588456,
			"byteLength":33680,
			"target":34962
		},
		{
			"buffer":0,
			"byteOffset":1622136,
			"byteLength":101040,
			"target":34962
		},
		{
			"buffer":0,
			"byteOffset":1723176,
			"byteLength":101040,
			"target":34962
		},
		{
			"buffer":0,
			"byteOffset":1824216,
			"byteLength":33680,
			"target":34962
		},
		{
			"buffer":0,
			"byteOffset":1857896,
			"byteLength":101040,
			"target":34962
		},
		{
			"buffer":0,
			"byteOffset":1958936,
			"byteLength":101040,
			"target":34962
		},
		{
			"buffer":0,
			"byteOffset":2059976,
			"byteLength":33680,
			"target":34962
		},
		{
			"buffer":0,
			"byteOffset":2093656,
			"byteLength":101040,
			"target":34962
		},
		{
			"buffer":0,
			"byteOffset":2194696,
			"byteLength":101040,
			"target":34962
		},
		{
			"buffer":0,
			"byteOffset":2295736,
			"byteLength":33680,
			"target":34962
		},
		{
			"buffer":0,
			"byteOffset":2329416,
			"byteLength":32
		},
		{
			"buffer":0,
			"byteOffset":2329448,
			"byteLength":32
		},
		{
			"buffer":0,
			"byteOffset":2329480,
			"byteLength":36
		}
	],
	"nodes":[
		{
			"mesh":0
		}
	],
	"meshes":[
		{
			"primitives":[
				{
					"attributes":{
						"COLOR_0":2,
						"POSITION":1,
						"_Alpha":3
					},
					"indices":0,
					"targets":[
						{
							"COLOR_0":5,
							"POSITION":4,
							"_Alpha":6
						},
						{
							"COLOR_0":8,
							"POSITION":7,
							"_Alpha":9
						},
						{
							"COLOR_0":11,
							"POSITION":10,
							"_Alpha":12
						},
						{
							"COLOR_0":14,
							"POSITION":13,
							"_Alpha":15
						},
						{
							"COLOR_0":17,
							"POSITION":16,
							"_Alpha":18
						},
						{
							"COLOR_0":20,
							"POSITION":19,
							"_Alpha":21
						},
						{
							"COLOR_0":23,
							"POSITION":22,
							"_Alpha":24
						},
						{
							"COLOR_0":26,
							"POSITION":25,
							"_Alpha":27
						}
					]
				}
			],
			"extras":{
				"targetNames":["","","","","","","",""
				]
			}
		}
	],
	"scenes":[
		{
			"nodes":[0
			]
		}
	],
	"scene":0
}
