{
	"asset":{
		"version":"2.0",
		"generator":"Houdini GLTF 2.0 Exporter"
	},
	"animations":[
		{
			"channels":[
				{
					"target":{
						"node":0,
						"path":"weights"
					},
					"sampler":0
				}
			],
			"samplers":[
				{
					"input":26,
					"interpolation":"LINEAR",
					"output":25
				}
			]
		}
	],
	"accessors":[
		{
			"bufferView":0,
			"componentType":5123,
			"count":1056,
			"type":"SCALAR",
			"min":[0
			],
			"max":[224
			]
		},
		{
			"bufferView":1,
			"componentType":5126,
			"count":225,
			"type":"VEC3",
			"min":[-0.477710545,-0.0383447222,0.0637506545
			],
			"max":[-0.347431719,0.0919349268,0.0961251035
			]
		},
		{
			"bufferView":2,
			"componentType":5126,
			"count":225,
			"type":"VEC3",
			"min":[0.126758531,0.0908116028,0.33129847
			],
			"max":[1,1,1
			]
		},
		{
			"bufferView":3,
			"componentType":5126,
			"count":225,
			"type":"SCALAR",
			"min":[1
			],
			"max":[1
			]
		},
		{
			"bufferView":4,
			"componentType":5126,
			"count":225,
			"type":"VEC3",
			"min":[-0.00432637334,-0.00462348573,-0.000887200236
			],
			"max":[0.0021276474,0.00528884679,0.000218182802
			]
		},
		{
			"bufferView":5,
			"componentType":5126,
			"count":225,
			"type":"VEC3",
			"min":[0,0,0
			],
			"max":[0,0,0
			]
		},
		{
			"bufferView":6,
			"componentType":5126,
			"count":225,
			"type":"SCALAR",
			"min":[0
			],
			"max":[0
			]
		},
		{
			"bufferView":7,
			"componentType":5126,
			"count":225,
			"type":"VEC3",
			"min":[-0.0175471008,-0.0187347848,-0.0055327788
			],
			"max":[0.00862950087,0.0214680247,0.000675968826
			]
		},
		{
			"bufferView":8,
			"componentType":5126,
			"count":225,
			"type":"VEC3",
			"min":[0,0,0
			],
			"max":[0,0,0
			]
		},
		{
			"bufferView":9,
			"componentType":5126,
			"count":225,
			"type":"SCALAR",
			"min":[0
			],
			"max":[0
			]
		},
		{
			"bufferView":10,
			"componentType":5126,
			"count":225,
			"type":"VEC3",
			"min":[-0.0256587565,-0.0272258706,-0.0104870349
			],
			"max":[0.0126484632,0.0313726999,0.000938601792
			]
		},
		{
			"bufferView":11,
			"componentType":5126,
			"count":225,
			"type":"VEC3",
			"min":[0,0,0
			],
			"max":[0,0,0
			]
		},
		{
			"bufferView":12,
			"componentType":5126,
			"count":225,
			"type":"SCALAR",
			"min":[0
			],
			"max":[0
			]
		},
		{
			"bufferView":13,
			"componentType":5126,
			"count":225,
			"type":"VEC3",
			"min":[-0.0275768638,-0.0221505575,-0.0113177225
			],
			"max":[0.0148715079,0.0326766931,0.0021404326
			]
		},
		{
			"bufferView":14,
			"componentType":5126,
			"count":225,
			"type":"VEC3",
			"min":[0,0,0
			],
			"max":[0,0,0
			]
		},
		{
			"bufferView":15,
			"componentType":5126,
			"count":225,
			"type":"SCALAR",
			"min":[0
			],
			"max":[0
			]
		},
		{
			"bufferView":16,
			"componentType":5126,
			"count":225,
			"type":"VEC3",
			"min":[-0.0277821124,-0.00807859004,-0.0100697204
			],
			"max":[0.0175400376,0.0308330767,0.00428134948
			]
		},
		{
			"bufferView":17,
			"componentType":5126,
			"count":225,
			"type":"VEC3",
			"min":[0,0,0
			],
			"max":[0,0,0
			]
		},
		{
			"bufferView":18,
			"componentType":5126,
			"count":225,
			"type":"SCALAR",
			"min":[0
			],
			"max":[0
			]
		},
		{
			"bufferView":19,
			"componentType":5126,
			"count":225,
			"type":"VEC3",
			"min":[-0.0279964209,-0.00156398118,-0.00878723711
			],
			"max":[0.0207217336,0.0285841711,0.00600647181
			]
		},
		{
			"bufferView":20,
			"componentType":5126,
			"count":225,
			"type":"VEC3",
			"min":[0,0,0
			],
			"max":[0,0,0
			]
		},
		{
			"bufferView":21,
			"componentType":5126,
			"count":225,
			"type":"SCALAR",
			"min":[0
			],
			"max":[0
			]
		},
		{
			"bufferView":22,
			"componentType":5126,
			"count":225,
			"type":"VEC3",
			"min":[-0.0282237828,-0.00401007012,-0.00813988596
			],
			"max":[0.0240970254,0.0423124954,0.0063784942
			]
		},
		{
			"bufferView":23,
			"componentType":5126,
			"count":225,
			"type":"VEC3",
			"min":[0,0,0
			],
			"max":[0,0,0
			]
		},
		{
			"bufferView":24,
			"componentType":5126,
			"count":225,
			"type":"SCALAR",
			"min":[0
			],
			"max":[0
			]
		},
		{
			"componentType":5126,
			"count":56,
			"type":"SCALAR",
			"sparse":{
				"count":7,
				"values":{
					"bufferView":26
				},
				"indices":{
					"bufferView":25,
					"componentType":5125
				}
			},
			"min":[0
			],
			"max":[1
			]
		},
		{
			"bufferView":27,
			"componentType":5126,
			"count":8,
			"type":"SCALAR",
			"min":[0
			],
			"max":[0.291666657
			]
		}
	],
	"buffers":[
		{
			"uri":"chigyo_eye_data.bin",
			"byteLength":52600
		}
	],
	"bufferViews":[
		{
			"buffer":0,
			"byteLength":2112,
			"target":34963
		},
		{
			"buffer":0,
			"byteOffset":2112,
			"byteLength":2700,
			"target":34962
		},
		{
			"buffer":0,
			"byteOffset":4812,
			"byteLength":2700,
			"target":34962
		},
		{
			"buffer":0,
			"byteOffset":7512,
			"byteLength":900,
			"target":34962
		},
		{
			"buffer":0,
			"byteOffset":8412,
			"byteLength":2700,
			"target":34962
		},
		{
			"buffer":0,
			"byteOffset":11112,
			"byteLength":2700,
			"target":34962
		},
		{
			"buffer":0,
			"byteOffset":13812,
			"byteLength":900,
			"target":34962
		},
		{
			"buffer":0,
			"byteOffset":14712,
			"byteLength":2700,
			"target":34962
		},
		{
			"buffer":0,
			"byteOffset":17412,
			"byteLength":2700,
			"target":34962
		},
		{
			"buffer":0,
			"byteOffset":20112,
			"byteLength":900,
			"target":34962
		},
		{
			"buffer":0,
			"byteOffset":21012,
			"byteLength":2700,
			"target":34962
		},
		{
			"buffer":0,
			"byteOffset":23712,
			"byteLength":2700,
			"target":34962
		},
		{
			"buffer":0,
			"byteOffset":26412,
			"byteLength":900,
			"target":34962
		},
		{
			"buffer":0,
			"byteOffset":27312,
			"byteLength":2700,
			"target":34962
		},
		{
			"buffer":0,
			"byteOffset":30012,
			"byteLength":2700,
			"target":34962
		},
		{
			"buffer":0,
			"byteOffset":32712,
			"byteLength":900,
			"target":34962
		},
		{
			"buffer":0,
			"byteOffset":33612,
			"byteLength":2700,
			"target":34962
		},
		{
			"buffer":0,
			"byteOffset":36312,
			"byteLength":2700,
			"target":34962
		},
		{
			"buffer":0,
			"byteOffset":39012,
			"byteLength":900,
			"target":34962
		},
		{
			"buffer":0,
			"byteOffset":39912,
			"byteLength":2700,
			"target":34962
		},
		{
			"buffer":0,
			"byteOffset":42612,
			"byteLength":2700,
			"target":34962
		},
		{
			"buffer":0,
			"byteOffset":45312,
			"byteLength":900,
			"target":34962
		},
		{
			"buffer":0,
			"byteOffset":46212,
			"byteLength":2700,
			"target":34962
		},
		{
			"buffer":0,
			"byteOffset":48912,
			"byteLength":2700,
			"target":34962
		},
		{
			"buffer":0,
			"byteOffset":51612,
			"byteLength":900,
			"target":34962
		},
		{
			"buffer":0,
			"byteOffset":52512,
			"byteLength":28
		},
		{
			"buffer":0,
			"byteOffset":52540,
			"byteLength":28
		},
		{
			"buffer":0,
			"byteOffset":52568,
			"byteLength":32
		}
	],
	"nodes":[
		{
			"mesh":0
		}
	],
	"meshes":[
		{
			"primitives":[
				{
					"attributes":{
						"COLOR_0":2,
						"POSITION":1,
						"_Alpha":3
					},
					"indices":0,
					"targets":[
						{
							"COLOR_0":5,
							"POSITION":4,
							"_Alpha":6
						},
						{
							"COLOR_0":8,
							"POSITION":7,
							"_Alpha":9
						},
						{
							"COLOR_0":11,
							"POSITION":10,
							"_Alpha":12
						},
						{
							"COLOR_0":14,
							"POSITION":13,
							"_Alpha":15
						},
						{
							"COLOR_0":17,
							"POSITION":16,
							"_Alpha":18
						},
						{
							"COLOR_0":20,
							"POSITION":19,
							"_Alpha":21
						},
						{
							"COLOR_0":23,
							"POSITION":22,
							"_Alpha":24
						}
					]
				}
			],
			"extras":{
				"targetNames":["","","","","","",""
				]
			}
		}
	],
	"scenes":[
		{
			"nodes":[0
			]
		}
	],
	"scene":0
}
